<svg width="379" height="168" viewBox="0 0 379 168" fill="none" xmlns="http://www.w3.org/2000/svg">
<path d="M0.450391 35.8C0.450391 28.8667 1.95039 22.7 4.95039 17.3C7.95039 11.8333 12.1171 7.6 17.4504 4.6C22.8504 1.53333 28.9504 -3.8147e-06 35.7504 -3.8147e-06C44.0837 -3.8147e-06 51.2171 2.2 57.1504 6.59999C63.0837 11 67.0504 17 69.0504 24.6H50.2504C48.8504 21.6667 46.8504 19.4333 44.2504 17.9C41.7171 16.3667 38.8171 15.6 35.5504 15.6C30.2837 15.6 26.0171 17.4333 22.7504 21.1C19.4837 24.7667 17.8504 29.6667 17.8504 35.8C17.8504 41.9333 19.4837 46.8333 22.7504 50.5C26.0171 54.1667 30.2837 56 35.5504 56C38.8171 56 41.7171 55.2333 44.2504 53.7C46.8504 52.1667 48.8504 49.9333 50.2504 47H69.0504C67.0504 54.6 63.0837 60.6 57.1504 65C51.2171 69.3333 44.0837 71.5 35.7504 71.5C28.9504 71.5 22.8504 70 17.4504 67C12.1171 63.9333 7.95039 59.7 4.95039 54.3C1.95039 48.9 0.450391 42.7333 0.450391 35.8ZM94.6223 24.5C96.6223 21.4333 99.1223 19.0333 102.122 17.3C105.122 15.5 108.456 14.6 112.122 14.6V32.7H107.422C103.156 32.7 99.9556 33.6333 97.8223 35.5C95.6889 37.3 94.6223 40.5 94.6223 45.1V71H77.5223V15.2H94.6223V24.5ZM170.896 42.2C170.896 43.8 170.796 45.4667 170.596 47.2H131.896C132.162 50.6667 133.262 53.3333 135.196 55.2C137.196 57 139.629 57.9 142.496 57.9C146.762 57.9 149.729 56.1 151.396 52.5H169.596C168.662 56.1667 166.962 59.4667 164.496 62.4C162.096 65.3333 159.062 67.6333 155.396 69.3C151.729 70.9667 147.629 71.8 143.096 71.8C137.629 71.8 132.762 70.6333 128.496 68.3C124.229 65.9667 120.896 62.6333 118.496 58.3C116.096 53.9667 114.896 48.9 114.896 43.1C114.896 37.3 116.062 32.2333 118.396 27.9C120.796 23.5667 124.129 20.2333 128.396 17.9C132.662 15.5667 137.562 14.4 143.096 14.4C148.496 14.4 153.296 15.5333 157.496 17.8C161.696 20.0667 164.962 23.3 167.296 27.5C169.696 31.7 170.896 36.6 170.896 42.2ZM153.396 37.7C153.396 34.7667 152.396 32.4333 150.396 30.7C148.396 28.9667 145.896 28.1 142.896 28.1C140.029 28.1 137.596 28.9333 135.596 30.6C133.662 32.2667 132.462 34.6333 131.996 37.7H153.396ZM174.517 43C174.517 37.2667 175.583 32.2333 177.717 27.9C179.917 23.5667 182.883 20.2333 186.617 17.9C190.35 15.5667 194.517 14.4 199.117 14.4C203.05 14.4 206.483 15.2 209.417 16.8C212.417 18.4 214.717 20.5 216.317 23.1V15.2H233.417V71H216.317V63.1C214.65 65.7 212.317 67.8 209.317 69.4C206.383 71 202.95 71.8 199.017 71.8C194.483 71.8 190.35 70.6333 186.617 68.3C182.883 65.9 179.917 62.5333 177.717 58.2C175.583 53.8 174.517 48.7333 174.517 43ZM216.317 43.1C216.317 38.8333 215.117 35.4667 212.717 33C210.383 30.5333 207.517 29.3 204.117 29.3C200.717 29.3 197.817 30.5333 195.417 33C193.083 35.4 191.917 38.7333 191.917 43C191.917 47.2667 193.083 50.6667 195.417 53.2C197.817 55.6667 200.717 56.9 204.117 56.9C207.517 56.9 210.383 55.6667 212.717 53.2C215.117 50.7333 216.317 47.3667 216.317 43.1ZM274.888 56.5V71H266.188C259.988 71 255.155 69.5 251.688 66.5C248.221 63.4333 246.488 58.4667 246.488 51.6V29.4H239.688V15.2H246.488V1.6H263.588V15.2H274.788V29.4H263.588V51.8C263.588 53.4667 263.988 54.6667 264.788 55.4C265.588 56.1333 266.921 56.5 268.788 56.5H274.888ZM307.813 71.8C302.346 71.8 297.413 70.6333 293.013 68.3C288.68 65.9667 285.246 62.6333 282.713 58.3C280.246 53.9667 279.013 48.9 279.013 43.1C279.013 37.3667 280.28 32.3333 282.813 28C285.346 23.6 288.813 20.2333 293.213 17.9C297.613 15.5667 302.546 14.4 308.013 14.4C313.48 14.4 318.413 15.5667 322.813 17.9C327.213 20.2333 330.68 23.6 333.213 28C335.746 32.3333 337.013 37.3667 337.013 43.1C337.013 48.8333 335.713 53.9 333.113 58.3C330.58 62.6333 327.08 65.9667 322.613 68.3C318.213 70.6333 313.28 71.8 307.813 71.8ZM307.813 57C311.08 57 313.846 55.8 316.113 53.4C318.446 51 319.613 47.5667 319.613 43.1C319.613 38.6333 318.48 35.2 316.213 32.8C314.013 30.4 311.28 29.2 308.013 29.2C304.68 29.2 301.913 30.4 299.713 32.8C297.513 35.1333 296.413 38.5667 296.413 43.1C296.413 47.5667 297.48 51 299.613 53.4C301.813 55.8 304.546 57 307.813 57ZM361.185 24.5C363.185 21.4333 365.685 19.0333 368.685 17.3C371.685 15.5 375.018 14.6 378.685 14.6V32.7H373.985C369.718 32.7 366.518 33.6333 364.385 35.5C362.251 37.3 361.185 40.5 361.185 45.1V71H344.085V15.2H361.185V24.5ZM151.333 98V167H144.333V111.9L119.733 167H114.633L90.0332 112.1V167H83.0332V98H90.4332L117.133 157.8L143.833 98H151.333ZM168.713 102.1C167.313 102.1 166.113 101.6 165.113 100.6C164.113 99.6 163.613 98.3667 163.613 96.9C163.613 95.4333 164.113 94.2333 165.113 93.3C166.113 92.3 167.313 91.8 168.713 91.8C170.113 91.8 171.313 92.3 172.313 93.3C173.313 94.2333 173.813 95.4333 173.813 96.9C173.813 98.3667 173.313 99.6 172.313 100.6C171.313 101.6 170.113 102.1 168.713 102.1ZM172.213 112.4V167H165.213V112.4H172.213ZM211.664 111.4C218.198 111.4 223.531 113.433 227.664 117.5C231.798 121.5 233.864 127.333 233.864 135V167H226.964V135.8C226.964 129.867 225.464 125.333 222.464 122.2C219.531 119.067 215.498 117.5 210.364 117.5C205.098 117.5 200.898 119.167 197.764 122.5C194.631 125.833 193.064 130.733 193.064 137.2V167H186.064V112.4H193.064V121.7C194.798 118.367 197.298 115.833 200.564 114.1C203.831 112.3 207.531 111.4 211.664 111.4ZM256.446 118.3V152.2C256.446 155.533 257.079 157.833 258.346 159.1C259.612 160.367 261.846 161 265.046 161H271.446V167H263.946C259.012 167 255.346 165.867 252.946 163.6C250.546 161.267 249.346 157.467 249.346 152.2V118.3H241.746V112.4H249.346V98.7H256.446V112.4H271.446V118.3H256.446ZM299.79 167.8C293.524 167.8 288.39 166.367 284.39 163.5C280.457 160.567 278.257 156.6 277.79 151.6H284.99C285.324 154.667 286.757 157.167 289.29 159.1C291.89 160.967 295.357 161.9 299.69 161.9C303.49 161.9 306.457 161 308.59 159.2C310.79 157.4 311.89 155.167 311.89 152.5C311.89 150.633 311.29 149.1 310.09 147.9C308.89 146.7 307.357 145.767 305.49 145.1C303.69 144.367 301.224 143.6 298.09 142.8C294.024 141.733 290.724 140.667 288.19 139.6C285.657 138.533 283.49 136.967 281.69 134.9C279.957 132.767 279.09 129.933 279.09 126.4C279.09 123.733 279.89 121.267 281.49 119C283.09 116.733 285.357 114.933 288.29 113.6C291.224 112.267 294.557 111.6 298.29 111.6C304.157 111.6 308.89 113.1 312.49 116.1C316.09 119.033 318.024 123.1 318.29 128.3H311.29C311.09 125.1 309.824 122.533 307.49 120.6C305.224 118.6 302.09 117.6 298.09 117.6C294.557 117.6 291.69 118.433 289.49 120.1C287.29 121.767 286.19 123.833 286.19 126.3C286.19 128.433 286.824 130.2 288.09 131.6C289.424 132.933 291.057 134 292.99 134.8C294.924 135.533 297.524 136.367 300.79 137.3C304.724 138.367 307.857 139.4 310.19 140.4C312.524 141.4 314.524 142.867 316.19 144.8C317.857 146.733 318.724 149.3 318.79 152.5C318.79 155.433 317.99 158.067 316.39 160.4C314.79 162.667 312.557 164.467 309.69 165.8C306.824 167.133 303.524 167.8 299.79 167.8Z" fill="#E733EC" fill-opacity="0.92549"/>
</svg>
