<svg width="500" height="500" viewBox="0 0 500 500" fill="none" xmlns="http://www.w3.org/2000/svg">
<g clip-path="url(#clip0_10_3)">
<rect width="500" height="500" />
<path d="M52.4504 214.8C52.4504 207.867 53.9504 201.7 56.9504 196.3C59.9504 190.833 64.1171 186.6 69.4504 183.6C74.8504 180.533 80.9504 179 87.7504 179C96.0837 179 103.217 181.2 109.15 185.6C115.084 190 119.05 196 121.05 203.6H102.25C100.85 200.667 98.8504 198.433 96.2504 196.9C93.7171 195.367 90.8171 194.6 87.5504 194.6C82.2837 194.6 78.0171 196.433 74.7504 200.1C71.4837 203.767 69.8504 208.667 69.8504 214.8C69.8504 220.933 71.4837 225.833 74.7504 229.5C78.0171 233.167 82.2837 235 87.5504 235C90.8171 235 93.7171 234.233 96.2504 232.7C98.8504 231.167 100.85 228.933 102.25 226H121.05C119.05 233.6 115.084 239.6 109.15 244C103.217 248.333 96.0837 250.5 87.7504 250.5C80.9504 250.5 74.8504 249 69.4504 246C64.1171 242.933 59.9504 238.7 56.9504 233.3C53.9504 227.9 52.4504 221.733 52.4504 214.8ZM146.622 203.5C148.622 200.433 151.122 198.033 154.122 196.3C157.122 194.5 160.456 193.6 164.122 193.6V211.7H159.422C155.156 211.7 151.956 212.633 149.822 214.5C147.689 216.3 146.622 219.5 146.622 224.1V250H129.522V194.2H146.622V203.5ZM222.896 221.2C222.896 222.8 222.796 224.467 222.596 226.2H183.896C184.162 229.667 185.262 232.333 187.196 234.2C189.196 236 191.629 236.9 194.496 236.9C198.762 236.9 201.729 235.1 203.396 231.5H221.596C220.662 235.167 218.962 238.467 216.496 241.4C214.096 244.333 211.062 246.633 207.396 248.3C203.729 249.967 199.629 250.8 195.096 250.8C189.629 250.8 184.762 249.633 180.496 247.3C176.229 244.967 172.896 241.633 170.496 237.3C168.096 232.967 166.896 227.9 166.896 222.1C166.896 216.3 168.062 211.233 170.396 206.9C172.796 202.567 176.129 199.233 180.396 196.9C184.662 194.567 189.562 193.4 195.096 193.4C200.496 193.4 205.296 194.533 209.496 196.8C213.696 199.067 216.962 202.3 219.296 206.5C221.696 210.7 222.896 215.6 222.896 221.2ZM205.396 216.7C205.396 213.767 204.396 211.433 202.396 209.7C200.396 207.967 197.896 207.1 194.896 207.1C192.029 207.1 189.596 207.933 187.596 209.6C185.662 211.267 184.462 213.633 183.996 216.7H205.396ZM226.517 222C226.517 216.267 227.583 211.233 229.717 206.9C231.917 202.567 234.883 199.233 238.617 196.9C242.35 194.567 246.517 193.4 251.117 193.4C255.05 193.4 258.483 194.2 261.417 195.8C264.417 197.4 266.717 199.5 268.317 202.1V194.2H285.417V250H268.317V242.1C266.65 244.7 264.317 246.8 261.317 248.4C258.383 250 254.95 250.8 251.017 250.8C246.483 250.8 242.35 249.633 238.617 247.3C234.883 244.9 231.917 241.533 229.717 237.2C227.583 232.8 226.517 227.733 226.517 222ZM268.317 222.1C268.317 217.833 267.117 214.467 264.717 212C262.383 209.533 259.517 208.3 256.117 208.3C252.717 208.3 249.817 209.533 247.417 212C245.083 214.4 243.917 217.733 243.917 222C243.917 226.267 245.083 229.667 247.417 232.2C249.817 234.667 252.717 235.9 256.117 235.9C259.517 235.9 262.383 234.667 264.717 232.2C267.117 229.733 268.317 226.367 268.317 222.1ZM326.888 235.5V250H318.188C311.988 250 307.155 248.5 303.688 245.5C300.221 242.433 298.488 237.467 298.488 230.6V208.4H291.688V194.2H298.488V180.6H315.588V194.2H326.788V208.4H315.588V230.8C315.588 232.467 315.988 233.667 316.788 234.4C317.588 235.133 318.921 235.5 320.788 235.5H326.888ZM359.813 250.8C354.346 250.8 349.413 249.633 345.013 247.3C340.68 244.967 337.246 241.633 334.713 237.3C332.246 232.967 331.013 227.9 331.013 222.1C331.013 216.367 332.28 211.333 334.813 207C337.346 202.6 340.813 199.233 345.213 196.9C349.613 194.567 354.546 193.4 360.013 193.4C365.48 193.4 370.413 194.567 374.813 196.9C379.213 199.233 382.68 202.6 385.213 207C387.746 211.333 389.013 216.367 389.013 222.1C389.013 227.833 387.713 232.9 385.113 237.3C382.58 241.633 379.08 244.967 374.613 247.3C370.213 249.633 365.28 250.8 359.813 250.8ZM359.813 236C363.08 236 365.846 234.8 368.113 232.4C370.446 230 371.613 226.567 371.613 222.1C371.613 217.633 370.48 214.2 368.213 211.8C366.013 209.4 363.28 208.2 360.013 208.2C356.68 208.2 353.913 209.4 351.713 211.8C349.513 214.133 348.413 217.567 348.413 222.1C348.413 226.567 349.48 230 351.613 232.4C353.813 234.8 356.546 236 359.813 236ZM413.185 203.5C415.185 200.433 417.685 198.033 420.685 196.3C423.685 194.5 427.018 193.6 430.685 193.6V211.7H425.985C421.718 211.7 418.518 212.633 416.385 214.5C414.251 216.3 413.185 219.5 413.185 224.1V250H396.085V194.2H413.185V203.5ZM203.333 277V346H196.333V290.9L171.733 346H166.633L142.033 291.1V346H135.033V277H142.433L169.133 336.8L195.833 277H203.333ZM220.713 281.1C219.313 281.1 218.113 280.6 217.113 279.6C216.113 278.6 215.613 277.367 215.613 275.9C215.613 274.433 216.113 273.233 217.113 272.3C218.113 271.3 219.313 270.8 220.713 270.8C222.113 270.8 223.313 271.3 224.313 272.3C225.313 273.233 225.813 274.433 225.813 275.9C225.813 277.367 225.313 278.6 224.313 279.6C223.313 280.6 222.113 281.1 220.713 281.1ZM224.213 291.4V346H217.213V291.4H224.213ZM263.664 290.4C270.198 290.4 275.531 292.433 279.664 296.5C283.798 300.5 285.864 306.333 285.864 314V346H278.964V314.8C278.964 308.867 277.464 304.333 274.464 301.2C271.531 298.067 267.498 296.5 262.364 296.5C257.098 296.5 252.898 298.167 249.764 301.5C246.631 304.833 245.064 309.733 245.064 316.2V346H238.064V291.4H245.064V300.7C246.798 297.367 249.298 294.833 252.564 293.1C255.831 291.3 259.531 290.4 263.664 290.4ZM308.446 297.3V331.2C308.446 334.533 309.079 336.833 310.346 338.1C311.612 339.367 313.846 340 317.046 340H323.446V346H315.946C311.012 346 307.346 344.867 304.946 342.6C302.546 340.267 301.346 336.467 301.346 331.2V297.3H293.746V291.4H301.346V277.7H308.446V291.4H323.446V297.3H308.446ZM351.79 346.8C345.524 346.8 340.39 345.367 336.39 342.5C332.457 339.567 330.257 335.6 329.79 330.6H336.99C337.324 333.667 338.757 336.167 341.29 338.1C343.89 339.967 347.357 340.9 351.69 340.9C355.49 340.9 358.457 340 360.59 338.2C362.79 336.4 363.89 334.167 363.89 331.5C363.89 329.633 363.29 328.1 362.09 326.9C360.89 325.7 359.357 324.767 357.49 324.1C355.69 323.367 353.224 322.6 350.09 321.8C346.024 320.733 342.724 319.667 340.19 318.6C337.657 317.533 335.49 315.967 333.69 313.9C331.957 311.767 331.09 308.933 331.09 305.4C331.09 302.733 331.89 300.267 333.49 298C335.09 295.733 337.357 293.933 340.29 292.6C343.224 291.267 346.557 290.6 350.29 290.6C356.157 290.6 360.89 292.1 364.49 295.1C368.09 298.033 370.024 302.1 370.29 307.3H363.29C363.09 304.1 361.824 301.533 359.49 299.6C357.224 297.6 354.09 296.6 350.09 296.6C346.557 296.6 343.69 297.433 341.49 299.1C339.29 300.767 338.19 302.833 338.19 305.3C338.19 307.433 338.824 309.2 340.09 310.6C341.424 311.933 343.057 313 344.99 313.8C346.924 314.533 349.524 315.367 352.79 316.3C356.724 317.367 359.857 318.4 362.19 319.4C364.524 320.4 366.524 321.867 368.19 323.8C369.857 325.733 370.724 328.3 370.79 331.5C370.79 334.433 369.99 337.067 368.39 339.4C366.79 341.667 364.557 343.467 361.69 344.8C358.824 346.133 355.524 346.8 351.79 346.8Z" fill="#E733EC" fill-opacity="0.92549"/>
<line x1="50" y1="162" x2="450" y2="162" stroke="#E733EC" stroke-width="10"/>
<line y1="-5" x2="400" y2="-5" transform="matrix(0.999954 0.00959942 -0.000721386 1 50 369)" stroke="#E733EC" stroke-width="10"/>
</g>
<defs>
<clipPath id="clip0_10_3">
<rect width="500" height="500"/>
</clipPath>
</defs>
</svg>
